<?xml version="1.0" encoding="UTF-8" standalone="no"?>
<!-- Generator: visioncortex VTracer 0.6.3 -->

<svg
   version="1.1"
   width="566.18311"
   height="616.58264"
   id="svg104"
   sodipodi:docname="catgrad-logo.svg"
   inkscape:version="1.3.2 (091e20ef0f, 2023-11-25, custom)"
   xmlns:inkscape="http://www.inkscape.org/namespaces/inkscape"
   xmlns:sodipodi="http://sodipodi.sourceforge.net/DTD/sodipodi-0.dtd"
   xmlns="http://www.w3.org/2000/svg"
   xmlns:svg="http://www.w3.org/2000/svg">
  <defs
     id="defs104" />
  <sodipodi:namedview
     id="namedview104"
     pagecolor="#ffffff"
     bordercolor="#000000"
     borderopacity="0.25"
     inkscape:showpageshadow="2"
     inkscape:pageopacity="0.0"
     inkscape:pagecheckerboard="0"
     inkscape:deskcolor="#d1d1d1"
     showgrid="false"
     inkscape:zoom="1.3232422"
     inkscape:cx="207.44502"
     inkscape:cy="417.15719"
     inkscape:window-width="1918"
     inkscape:window-height="2158"
     inkscape:window-x="1920"
     inkscape:window-y="0"
     inkscape:window-maximized="1"
     inkscape:current-layer="svg104" />
  <path
     d="m 31.628991,1.6885401 c 6.4,3.34 12.72,6.77 18.89,10.5299999 0.93,0.56 1.86,1.13 2.83,1.72 10.51,6.5 20.74,13.42 30.98,20.34 1.29,0.87 1.29,0.87 2.6,1.75 13.079999,8.85 26.079999,17.83 38.709999,27.31 0.99,0.74 0.99,0.74 1.99,1.49 6.93,5.24 13.65,10.72 20.36,16.24 1.59,1.31 3.2,2.6 4.81,3.89 5.93,4.78 11.57,9.79 17.14,14.99 2.03,1.85 4.05,3.57 6.18,5.28 0.88,0.76 1.75,1.52 2.65,2.3 v 2 c 1.96,-0.75 3.91,-1.5 5.87,-2.25 1.09,-0.42 2.18,-0.84 3.31,-1.27 2.89,-1.11 5.77,-2.27 8.64,-3.44 42.86,-17.12 93.11,-20.82 138.18,-11.04 1.59,0.33 1.59,0.33 3.21,0.66 14.6,3.07 29.17,6.88 42.72,13.25 3.46,1.63 3.46,1.63 7.2,2.01 2.57,-1.27 4.55,-2.89 6.74,-4.73 0.98,-0.82 1.95,-1.64 2.96,-2.48 1.05,-0.9 2.11,-1.81 3.17,-2.71 0.53,-0.45 1.06,-0.91 1.6,-1.38 l 6.78,-5.82 c 10.5,-9.02 21.17,-17.81 32.19,-26.18 2.58,-1.96 5.13,-3.95 7.67,-5.96 8.84,-6.97 17.78,-13.66 27.14,-19.91 1.98,-1.33 3.97,-2.66 5.95,-4 30.18,-20.34 30.18,-20.34 44.67,-28.7499999 0.76,-0.45 1.52,-0.91 2.3,-1.37 1.17,-0.69 1.17,-0.69 2.37,-1.38 0.71,-0.42 1.42,-0.83 2.15,-1.26 5.72,-2.6 11.63,-1.42999999 17.37,0.57 7.28,3.24 11.64,8.1799999 14.81,15.4399999 0.37,3.11 0.37,3.11 0.38,6.5 0,1.3 0.01,2.59 0.02,3.93 -0.01,1.43 -0.01,2.87 -0.02,4.3 0,1.53 0.01,3.05 0.01,4.58 0.02,4.2 0.01,8.39 0,12.59 -0.01,4.52 0,9.05 0.01,13.57 0.02,8.87 0.01,17.74 0,26.61 v 21.64 3.11 6.26 c 0.01,19.57 0,39.14 -0.01,58.71 -0.02,16.77 -0.01,33.54 0,50.31 0.02,19.48 0.02,38.97 0.01,58.45 v 6.25 3.1 c 0,7.19 0,14.39 0.01,21.58 0.01,8.78 0,17.57 -0.01,26.35 -0.01,4.48 -0.01,8.95 0,13.43 0,4.11 0,8.22 -0.02,12.33 0,1.47 0,2.95 0.01,4.42 0.05,10.64 -1.28,20.57 -3.39,30.98 -0.21,1.07 -0.42,2.13 -0.64,3.23 -9.68,49.03 -38.38,93.86 -78.36,123.77 -0.56,0.43 -1.12,0.85 -1.7,1.29 -20.38,15.47 -43.91,26.23 -68.3,33.71 -0.96,0.32 -1.92,0.65 -2.9,0.98 -24.98,8.18 -51.33,12.53 -77.37,15.58 -2.59,0.3 -5.18,0.63 -7.77,0.98 -12.77,1.64 -25.47,1.9 -38.34,1.9 h -3.41 c -33.01,-0.05 -75.19,-0.57 -106.21,-13.44 -1.82,-0.43 -3.64,-0.85 -5.47,-1.24 -29.17,-6.21 -59.41,-19.2 -83.529999,-36.76 -0.91,-0.65 -0.91,-0.65 -1.84,-1.32 -9.68,-6.95 -18.6,-14.4 -27.16,-22.68 -1.01,-0.95 -1.01,-0.95 -2.05,-1.92 -32.62,-31.36 -54.8400001,-79.72 -57.14000011,-124.81 -0.08,-4.02 -0.1,-8.03 -0.09,-12.05 -0.01,-1.55 -0.01,-3.09 -0.02,-4.64 -0.02,-4.2 -0.02,-8.41 -0.02,-12.61 l -0.03,-13.65 c -0.03,-9.92 -0.04,-19.84 -0.05,-29.76 l -0.03,-18.6 c -0.02,-17.18 -0.04,-34.36 -0.05,-51.54 v -3.33 -3.33 -6.69 -3.35 c -0.01,-17.93 -0.05,-35.86 -0.09,-53.8 -0.05,-18.43 -0.08,-36.86 -0.08,-55.29 0,-10.35 -0.01,-20.69 -0.05,-31.03 -0.03,-8.8 -0.04,-17.6 -0.02,-26.39 0.01,-4.49 0,-8.98 -0.02,-13.47 -0.03,-4.11 -0.03,-8.21 0,-12.33 0,-1.48 -0.01,-2.96 -0.02,-4.45 -0.1,-8.97 0.54,-15.21 6.76000001,-21.9599999 6.7700001,-6.89999999 15.6600001,-9.57 24.8600001,-5.84 z m 2.14,39.8399999 c -0.09,43.29 -0.16,86.57 -0.21,129.86 0,5.12 -0.01,10.24 -0.01,15.37 v 3.09 c -0.02,16.46 -0.05,32.92 -0.09,49.39 -0.04,16.91 -0.06,33.83 -0.07,50.75 0,10.42 -0.02,20.85 -0.05,31.27 -0.03,7.17 -0.03,14.33 -0.03,21.5 0.01,4.12 0,8.25 -0.02,12.37 -0.14,28.58 1.76,58.24 14.48,84.4 0.3,0.62 0.61,1.25 0.92,1.89 7.33,14.91 16.07,28.5 27.59,40.5 2.1,2.21 4.05,4.45 5.99,6.8 4.28,4.92 9.36,8.82 14.5,12.81 1.41,1.11 1.41,1.11 2.85,2.25 7.099999,5.5 14.489999,10.23 22.279999,14.68 1.75,1 3.48,2.03 5.21,3.06 36.82,21 81.07,27.81 122.66,32.01 1.06,0.11 2.12,0.21 3.22,0.32 10.75,0.93 21.53,0.83 32.32,0.81 3.32,-0.01 6.64,0 9.96,0.01 18.87,0.01 36.67,-1.22 55.19,-4.89 1.87,-0.37 3.74,-0.73 5.62,-1.1 48.01,-9.4 90.53,-24.05 126.69,-58.15 0.73,-0.69 1.46,-1.38 2.22,-2.1 14.11,-13.69 24.67,-30.09 32.78,-47.9 0.31,-0.68 0.62,-1.36 0.94,-2.06 3.6,-7.96 6.55,-15.99 8.81,-24.44 0.28,-1.05 0.28,-1.05 0.56,-2.12 0.62,-2.45 1.15,-4.91 1.69,-7.38 0.37,-1.68 0.37,-1.68 0.75,-3.39 2.58,-12.51 2.72,-24.84 2.76,-37.58 0.02,-2.27 0.03,-4.53 0.05,-6.79 0.05,-5.9 0.08,-11.8 0.11,-17.69 0.03,-6.04 0.07,-12.08 0.12,-18.12 0.08,-11.81 0.15,-23.62 0.21,-35.43 -1.07,-0.53 -2.14,-1.06 -3.24,-1.6 -1.43,-0.71 -2.86,-1.42 -4.29,-2.14 -0.7,-0.34 -1.4,-0.69 -2.13,-1.04 -13.49,-6.72 -25.5,-14.95 -37.34,-24.22 -1.01,-0.79 -2.03,-1.57 -3.07,-2.38 -17.24,-13.71 -29.88,-30.13 -39.93,-49.62 -0.5,-0.95 -1.01,-1.91 -1.53,-2.89 -5.16,-10.47 -7.8,-21.59 -7.91,-33.24 -0.01,-0.69 -0.02,-1.39 -0.03,-2.11 0.15,-8.65 4.91,-13.85 10.22,-20.14 0.59,-0.71 1.19,-1.43 1.8,-2.17 3.58,-4.29 6.04083,-9.72815 10.1131,-13.30975 1.36,-1.56 3.4769,-2.58025 4.7769,-4.20025 2.52,-2.89 4.28614,-5.89663 7.19614,-8.37663 3.85,-3.46 7.52094,-6.42954 11.12094,-10.16954 4.8,-4.9 10.82292,-9.19383 16.24292,-13.39383 0.85,-0.67 1.71,-1.33 2.59,-2.02 2.6,-2.03 5.22,-4.04 7.85,-6.04 0.86,-0.67 1.72,-1.34 2.61,-2.03 1.3,-0.99 1.3,-0.99 2.63,-2.01 0.76,-0.58 1.52,-1.16 2.3,-1.76 4.56,-3.23 9.29,-6.17 14.02,-9.14 -0.01,0.64 -0.01,1.29 -0.02,1.95 -0.04,6.85 -0.07,13.7 -0.09,20.55 -0.01,2.53 -0.03,5.07 -0.04,7.61 -0.16,23.48 1.32,46.59 4.15,69.89 h 1 v -130 c -15.61,6.24 -29.38,17.33 -43,27 -0.85,0.6 -1.69,1.2 -2.57,1.82 -13.58,9.64 -26.68,19.74 -39.35,30.57 -2.81,2.39 -5.66,4.72 -8.52,7.05 -9.35,7.63 -18.48,15.46 -27.31,23.68 -0.63,0.59 -1.26,1.17 -1.9,1.77 -2.86,2.69 -5.66,5.4 -8.34,8.25 -0.87,0.92 -1.74,1.85 -2.64,2.8 -0.73,0.81 -1.47,1.62 -2.22,2.46 -2.15,1.6 -2.15,1.6 -4.46,1.58 -3.52,-1.29 -6.81,-2.93 -10.13,-4.67 -11.53,-5.89 -23.08,-10.76 -35.56,-14.31 -1.36,-0.42 -2.72,-0.83 -4.08,-1.25 -16.21,-4.88 -33,-7.28 -49.92,-7.75 -0.93,-0.03 -1.85,-0.06 -2.8,-0.08 -38.1,-0.96 -76.19,7.04 -108.93,27.21 -2.27,0.87 -2.27,0.87 -4.19,0.37 -2.94,-2.12 -5.53,-4.56 -8.14,-7.06 -4.88,-4.58 -9.86,-8.92 -15.07,-13.11 -3.29,-2.67 -6.48,-5.43 -9.68,-8.21 -5.75,-4.95 -11.63,-9.68 -17.63,-14.34 -3.09,-2.4 -6.13,-4.85 -9.17,-7.31 -6.43,-5.2 -12.97,-10.15 -19.739999,-14.9 -2.84,-1.99 -5.66,-4.01 -8.48,-6.04 -7.32,-5.28 -14.76,-10.35 -22.28,-15.34 -1.89,-1.25 -3.79,-2.52 -5.68,-3.78 -3.73,-2.48 -7.47,-4.95 -11.21,-7.41 -0.66,-0.43 -1.31,-0.87 -1.99,-1.31 -1.94,-1.28 -3.88,-2.55 -5.82,-3.81 -0.6,-0.39 -1.19,-0.78 -1.8,-1.19 -2.95,-2.06 -2.95,-2.06 -6.39,-2.69 z"
     fill="#04030e"
     id="path3"
     sodipodi:nodetypes="ccccccccccccccccccccccscccccccsccccccccccccccccccscccccccccccccsccccccccccccccccccccscccccccccscccccccccccccccccccccccccccccccccccccccccccccccccccccccccccccccccccccccccccccccccscccccccccc" />
  <path
     d="m 33.766931,41.52716 c 3.66,1.46 6.39,2.73 9.63,4.8 1.32,0.84 1.32,0.84 2.67,1.69 1.4,0.9 1.4,0.9 2.82,1.82 1.47,0.94 1.47,0.94 2.96,1.89 29.83,19.21 58.849999,40.14 85.839999,63.19 2.81,2.39 5.65,4.72 8.52,7.05 10.47,8.53 21.79794,16.50196 31.72794,25.66196 5.05,-1.48 8.14206,-2.81196 12.71206,-5.35196 5.88,-3.2 11.79,-6.01 18.06,-8.37 0.68,-0.26 1.36,-0.52 2.06,-0.79 1.64,-0.6 3.32,-1.1 5,-1.59 l 2,1 c -15.25,42.72 -38.35,79.25 -75,107 -0.63,0.48 -1.26,0.96 -1.9,1.45 -21.47,16.21 -44.669999,29.58 -70.099999,38.55 -0.75,0.27 -1.5,0.54 -2.28,0.82 -28.43,10.18 -28.43,10.18 -34.72,10.18 z"
     fill="#fd0235"
     id="path4"
     sodipodi:nodetypes="ccccccccccccccccccc" />
  <path
     d="m 410.76693,249.52716 c 3.8,1.17 7.3,2.58 10.84,4.36 9.47,4.73 19.29,8.54 29.16,12.33 0.71,0.27 1.42,0.55 2.15,0.83 15.18,5.87 30.59,10.33 46.41,14.11 2.07,0.5 4.15,1 6.22,1.51 9.03,2.18 18.1,4.06 27.22,5.86 0.09,12.56 0.16,25.12 0.21,37.69 0.02,5.83 0.05,11.67 0.09,17.5 0.05,5.65 0.07,11.3 0.08,16.95 0.01,2.13 0.02,4.27 0.04,6.41 0.14,13.99 -1.06,26.86 -4.42,40.45 -0.19,0.79 -0.39,1.59 -0.59,2.41 -11.32,45.87 -39.9,83 -79.88,107.74 -26.17,15.6 -55.35,23.59 -84.97,29.54 -2.52,0.5 -5.05,1.02 -7.57,1.53 -4.66,0.95 -9.32,1.87 -13.99,2.78 -1.09,0.21 -2.18,0.43 -3.3,0.65 -16,2.92 -32.43,2.59 -48.64,2.6 -1.65,0 -1.65,0 -3.33,0 -74.27,-0.07 -151.65,-15.24 -206.729999,-68.25 -2.46,-2.57 -4.75,-5.25 -7,-8 -0.62,-0.73 -1.25,-1.47 -1.89,-2.23 -8.78,-10.59 -16.08,-22.42 -22.13,-34.78 -0.66,-1.35 -1.34,-2.69 -2.04,-4.02 -10.83,-21.09 -3.77,-42.39 2.27,-64.04 1.59,-5.91 2.7,-11.91 3.79,-17.93 0.39,-1.98 0.79,-3.96 1.19,-5.94 0.24,-1.19 0.24,-1.19 0.48,-2.4 0.11,-0.55 0.22,-1.1 0.33,-1.66 0.33,0 0.66,0 1,0 0.01,0.97 0.03,1.94 0.04,2.94 0.06,3.7 0.14,7.39 0.22,11.08 0.04,1.58 0.06,3.16 0.09,4.74 0.23,15.3 1.79,29.91 7.34,44.3 0.34,0.93 0.69,1.85 1.05,2.8 15.71,40.93 45.819999,70.3 85.279999,88.53 15.55,6.88 31.47,11.66 47.98,15.61 0.96,0.24 1.92,0.47 2.91,0.71 27.74,6.74 55.71,9.48 84.19,9.53 3.23,0.01 6.47,0.04 9.7,0.07 14.61,0.08 28.76,-1.08 43.2,-3.31 1.07,-0.16 1.07,-0.16 2.15,-0.33 3.86,-0.61 7.7,-1.3 11.54,-2.05 1.12,-0.21 2.24,-0.42 3.39,-0.64 20.72,-4.01 41.94,-8.46 60.92,-17.98 1.22,-0.58 2.44,-1.16 3.66,-1.74 14.25,-6.84 27.43,-14.81 39.34,-25.26 0.85,-0.72 1.7,-1.44 2.58,-2.18 6.24,-5.38 11.43,-11.27 16.42,-17.82 0.59,-0.78 1.19,-1.56 1.8,-2.36 22.67,-31.06 30.55,-66.12 30.58,-103.95 0,-0.94 0,-1.87 0,-2.84 0,-19.61 -1.02,-36.13 -15.38,-50.85 -12.97,-11.74 -28.49,-17.86 -44.47,-24.49 -13.43,-5.63 -26.47,-12.06 -39.53,-18.51 0,-0.66 0,-1.32 0,-2 z"
     fill="#c5c5d0"
     id="path5" />
  <path
     d="m 532.76693,41.52716 v 130 c -9.17666,-30.04695 -0.29765,-77.52714 -8.20407,-97.75423 -33.13618,23.31219 -66.4416,48.93979 -87.23569,84.46854 -10.35877,44.00276 25.93761,81.13229 58.32449,105.29441 10.89983,9.72628 52.34177,23.57972 17.22836,22.68136 -75.98112,-15.13159 -149.37313,-53.76572 -196.77523,-116.37417 -12.20803,-14.03435 -38.85512,-51.15274 -2.23711,-48.6925 27.41475,4.05933 52.09623,15.78794 78.6781,21.75054 23.35799,-7.37466 16.5102,-14.84928 38.2907,-27.44526 26.42908,-20.39026 72.07636,-58.80166 101.93045,-73.92869 z"
     fill="#fb0636"
     id="path6"
     sodipodi:nodetypes="ccccccccccc" />
  <path
     d="m 162.76693,570.52716 c 2.29,0.43 4.58,0.87 6.88,1.31 1.27,0.25 2.55,0.49 3.86,0.74 2.99,0.62 5.84,1.43 8.74,2.37 7.16,2.2 14.52,3.32 21.9,4.52 0.78,0.13 1.57,0.25 2.38,0.39 5.74,0.92 11.49,1.8 17.24,2.67 0.73,0.11 1.47,0.22 2.22,0.34 39.25,5.96 79.59,5.93 118.78,-0.34 2.14,-0.31 4.29,-0.61 6.43,-0.91 13.45,-1.94 26.69,-4.73 39.94,-7.72 0.66,-0.15 1.32,-0.29 2,-0.45 1.81,-0.41 3.61,-0.82 5.41,-1.23 3.06,-0.66 6.12,-1.2 9.22,-1.69 0,0.33 0,0.66 0,1 12.66,1.12 25.31,2.12 37.99,2.89 33.84,2.08 67.62,4.41 101.07,10.17 0.82,0.14 1.63,0.28 2.47,0.42 5.32,1.01 10.95,2.43 15.47,5.52 0.75,2.13 0.75,2.13 1,4 -11.97,6.94 -26.55,7.8 -40.06,9.5 -0.84,0.11 -1.67,0.21 -2.53,0.32 -16.26,2.07 -32.55,3.47 -48.89,4.66 -4.36,0.33 -8.71,0.74 -13.06,1.22 -16.11,1.73 -32.28,2.6 -48.46,3.42 -0.87,0.05 -1.74,0.09 -2.63,0.14 -84.23,4.23 -169.48,3.51 -260.23,-1.15 -2.12,-0.11 -4.24,-0.22 -6.36,-0.33 -39.45,-2.07 -78.739999,-5.64 -117.829999,-11.34 -0.81,-0.12 -1.62,-0.23 -2.45,-0.35 -12.52,-1.88 -12.52,-1.88 -17.5000001,-5.09 -0.77,-2.13 -0.77,-2.13 -1,-4 10.7600001,-7.26 24.8400001,-7.86 37.4400001,-9.5 0.81,-0.11 1.63,-0.21 2.47,-0.33 5.69,-0.74 11.39,-1.47 17.09,-2.17 1.21,-0.15 2.42,-0.3 3.67,-0.45 18.43,-2.2 36.959999,-3.35 55.469999,-4.6 1.36,-0.09 2.72,-0.18 4.08,-0.28 4.55,-0.3 9.09,-0.6 13.64,-0.9 1.16,-0.08 2.32,-0.16 3.51,-0.24 6.89,-0.44 13.73,-0.63 20.63,-0.53 0,-0.66 0,-1.32 0,-2 z"
     fill="#dbdae3"
     id="path7" />
  <path
     d="m 181.63021,302.19903 c 14.37,10.67 25.43,24.53 28.86,42.6 2.02,19.69 -1.91,36.64 -13.72,52.73 -10.22,12.16 -23.13,20.09 -39,22 -12.05,0.99 -23.79,0.99 -35,-4 -1.08,-0.46 -2.15,-0.93 -3.25,-1.4 -14.7,-7.09 -25.619999,-19.78 -31.629999,-34.91 -5.37,-17.62 -5.31,-36.66 3,-53.32 8.58,-15.11 22.919999,-27.23 39.839999,-31.92 17.55,-4.26 35.78,-1.82 50.9,8.22 z"
     fill="#04040e"
     id="path8" />
  <path
     d="m 456.47982,304.75958 c 7.49,5.66 13.44,11.65 18.29,19.77 0.48,0.76 0.95,1.52 1.45,2.3 5.16,8.99 6.27,18.24 6.17,28.45 -0.01,1.84 -0.01,1.84 -0.02,3.72 -0.24,9.95 -1.96,17.78 -6.6,26.53 -0.48,0.94 -0.96,1.89 -1.46,2.86 -8.77,15.88 -23.05,25.14 -40.16,30.21 -5.01,1.22 -9.94,1.31 -15.07,1.3 -0.97,0 -1.94,0 -2.94,0 -7.78,-0.13 -14.18,-1.28 -21.37,-4.37 -1.08,-0.42 -1.08,-0.42 -2.17,-0.84 -16.1,-6.99 -24.91,-20.97 -31.83,-36.16 -0.58,-1.19 -0.58,-1.19 -1.17,-2.4 -3.2,-7.61 -2.21,-16.52 -1.83,-24.6 0.02,-0.7 0.05,-1.41 0.08,-2.13 0.8,-17.23 8.54,-30.28 20.92,-41.87 22.14,-19.94 53.82,-19.96 77.71,-2.77 z"
     fill="#04040d"
     id="path9" />
  <path
     d="m 437.44219,157.87614 c 2.59913,10.48273 -2.51766,21.41302 2.46652,31.62927 12.8585,42.81632 49.43758,73.79376 88.26163,93.14079 10.25751,2.25249 5.89467,9.51824 -2.36107,6.19537 -22.546,-3.95914 -45.21001,-8.45952 -66.7214,-16.65443 -34.8778,-12.27587 -67.36038,-31.16351 -96.49575,-53.58198 -1.73228,-11.09228 16.42396,-5.03815 22.29659,-12.02241 19.4258,-9.28915 32.94828,-26.48073 46.73678,-42.32939 1.47473,-2.19105 4.27457,-4.23089 5.8167,-6.37722 z"
     fill="#b30527"
     id="path10"
     sodipodi:nodetypes="ccccccccc" />
  <path
     d="m 272.69662,403.19122 c 0.87,-0.01 1.74,-0.01 2.63,-0.02 1.83,-0.01 3.67,-0.01 5.5,-0.01 2.8,-0.01 5.59,-0.05 8.39,-0.08 1.78,-0.01 3.57,-0.01 5.36,-0.01 1.24,-0.03 1.24,-0.03 2.51,-0.05 5.38,0.04 8.39,0.97 12.68,4.51 3.64,3.84 6.51,7.99 6.44,13.43 -1.67,8.51 -10.11,14.73 -16.81,19.51 -1.63,1.06 -1.63,1.06 -3.63,2.06 -0.11,3 -0.19,5.99 -0.25,9 -0.03,0.84 -0.07,1.67 -0.1,2.54 -0.12,7.35 1.64,12.4 6.53,17.92 1.12,0.94 1.12,0.94 2.26,1.91 0.74,0.65 1.48,1.3 2.24,1.96 4.83,3.47 9.45,4.38 15.32,3.67 6.52,-2.1 10,-5.48 14.19,-10.75 2.24,-2.79 3.09,-3.16 6.62,-3.63 4.21,0.5 5.5,2.22 8.19,5.38 0.33,0.33 0.66,0.66 1,1 0.61,5.81 -0.03,9.24 -3.39,14.05 -5.92,7.17 -13.38,12.2 -22.61,13.95 -13.28,0.9 -23.42,-0.5 -34.03,-9.22 -2.07,-1.87 -4.08,-3.73 -5.97,-5.78 0,-0.66 0,-1.32 0,-2 -0.64,0.68 -1.28,1.36 -1.94,2.06 -9.18,9.06 -18.92,15.37 -32.18,15.44 -11.3,-0.26 -20.5,-3.31 -28.7,-11.27 -3.88,-4.31 -5.88,-7.85 -6.62,-13.67 0.6,-4.9 1.72,-6.32 5.44,-9.56 4.04,-0.73 6.05,-0.58 9.56,1.56 1.95,1.94 3.6,3.86 5.32,6 3.76,4.48 7.7,6.12 13.5,6.87 6.53,-0.79 13.06,-3.62 17.62,-8.43 6.72,-8.67 5.92,-19.56 6,-30 -0.72,-0.26 -1.44,-0.51 -2.18,-0.77 -3.06,-1.34 -5.29,-2.95 -7.88,-5.05 -0.84,-0.66 -1.68,-1.33 -2.54,-2.02 -4.52,-4.08 -7.52,-7.58 -7.84,-13.73 0.05,-5.97 2.39,-10.12 6.44,-14.43 3.92,-2.77 8.33,-2.33 12.93,-2.34 z"
     fill="#06050e"
     id="path11" />
  <path
     d="m 33.766931,41.52716 c 3.47,1.3 6.51,2.81 9.63,4.8 1.32,0.84 1.32,0.84 2.67,1.69 1.4,0.9 1.4,0.9 2.82,1.82 1.47,0.94 1.47,0.94 2.96,1.89 29.83,19.21 58.849999,40.14 85.839999,63.19 2.81,2.39 5.65,4.72 8.52,7.05 10.1,8.24 19.9,16.76 29.43,25.65 2.1,1.96 4.22,3.9 6.35,5.82 0.51,0.45 1.02,0.91 1.55,1.39 1.39,1.25 2.79,2.49 4.18,3.74 2.49,2.39 2.97,3.35 3.43,6.77 -0.38,3.19 -0.38,3.19 -2.5,6.07 -3.45,2.54 -4.68,2.72 -8.88,2.12 -2.71,-2.16 -2.71,-2.16 -5.38,-5.06 -3.15,-3.36 -6.29,-6.64 -9.81,-9.63 -2.68,-2.28 -5.17,-4.66 -7.62,-7.19 -3.8,-3.84 -7.87,-7.2 -12.08,-10.58 -3.56,-2.87 -6.98,-5.9 -10.42,-8.92 -6.49,-5.66 -13.16,-11.03 -19.98,-16.29 -1.69,-1.31 -3.36,-2.64 -5.03,-3.97 -17.999999,-14.32 -36.739999,-27.73 -55.849999,-40.53 -1.24,-0.83 -2.48,-1.67 -3.71,-2.51 -2.76,-1.87 -5.46,-3.48 -8.49,-4.89 -3.24,-1.58 -5.33,-2.64 -7.63,-5.43 -1.3,-5.58 -0.63,-11.36 0,-17 z"
     fill="#fbf6f8"
     id="path12" />
  <path
     d="m 532.76693,41.52716 c 3.75069,7.32549 0.99528,16.44004 -5.54676,21.17451 -8.33,6.74819 -18.65023,10.40067 -26.96095,17.208 -33.52993,23.87971 -64.28008,51.35311 -94.58397,79.13463 -3.42476,7.41716 -11.25103,13.26947 -19.51042,13.63916 -9.11337,-1.19246 -6.64418,-13.80086 -0.16836,-17.20267 9.25145,-9.26028 20.40089,-16.50957 28.86096,-26.57561 35.83253,-32.42703 74.11347,-62.36741 115.67479,-87.13755 l 1.11736,-0.12025 z"
     fill="#fbf7f8"
     id="path13" />
  <path
     d="m 146.1849,311.24982 c 5.95,2.84 11.8,7.04 14.88,13 2.22,7.23 1.7,15.09 -1.49,21.9 -4.46,7.58 -10.57,10.04 -18.81,12.38 -6.06,0.83 -10.91,-0.73 -16,-4 -5.45,-5.01 -9.51,-9.75 -10.37,-17.27 -0.14,-7.61 0.06,-13.02 5.37,-18.73 7.62,-7.58 15.6,-10.51 26.42,-7.28 z"
     fill="#fbfbfb"
     id="path15" />
  <path
     d="m 420.14193,313.02716 c 5.42,3.67 9.54,8.25 11.62,14.5 0.91,8.5 -0.15,14.9 -5,22 -2.81,3.47 -5.77,6.4 -10,8 -7.48,0.66 -15.56,1.29 -22,-3 -6.28,-5.74 -9.56,-11.48 -10.37,-19.94 0.38,-8.13 3.43,-14.54 9.37,-20.06 7.66,-5.47 18.15,-6.1 26.38,-1.5 z"
     fill="#fbfbfb"
     id="path16" />
  <path
     d="m 229.63206,219.17171 c 5.06,1.71 7.89,4.58 11.69,8.25 1.41,1.29 2.82,2.58 4.23,3.87 1.53,1.4 3.06,2.8 4.59,4.21 2.17,2 4.35,3.99 6.54,5.97 0.55,0.49 1.1,0.99 1.66,1.5 1.04,0.94 2.09,1.89 3.14,2.83 2.33,2.11 4.08,3.99 5.84,6.62 -0.08,4.25 -0.62,6.47 -3.13,9.94 -3.68,2.64 -5.4,2.6 -9.87,2.06 -2.33,-1.64 -4.05,-3.06 -6,-5.06 -0.52,-0.51 -1.04,-1.01 -1.58,-1.53 -1.49,-1.45 -2.96,-2.93 -4.42,-4.41 -0.68,-0.67 -1.35,-1.35 -2.05,-2.04 -1.11,-1.11 -2.21,-2.23 -3.31,-3.35 -1.83,-1.79 -3.75,-3.45 -5.71,-5.11 -10.23,-8.95 -10.23,-8.95 -10.62,-14.63 0.69,-3.87 0.69,-3.87 2.75,-6.93 2.94,-1.94 2.94,-1.94 6.25,-2.19 z"
     fill="#070810"
     id="path17" />
  <path
     d="m 532.76693,58.52716 c 0,37.29 0,74.58 0,113 -0.33,0 -0.66,0 -1,0 -0.41,-4.02 -0.82,-8.03 -1.23,-12.05 -0.13,-1.36 -0.27,-2.72 -0.41,-4.08 -0.21,-1.98 -0.41,-3.96 -0.61,-5.94 -0.12,-1.18 -0.24,-2.37 -0.36,-3.59 -0.99,-10.66 -1.54,-21.24 -1.49,-31.96 0,-1.22 0.01,-2.44 0.01,-3.7 0,-3.85 0.01,-7.7 0.03,-11.56 0,-2.63 0.01,-5.26 0.01,-7.9 0.01,-6.4 0.03,-12.81 0.05,-19.22 -7.85,5.11 -15.4,10.45 -22.81,16.19 -5.67,4.37 -11.34,8.7 -17.19,12.81 -0.33,-2.64 -0.66,-5.28 -1,-8 -2.48,0.5 -2.48,0.5 -5,1 4.06,-4.35 8.53,-7.75 13.38,-11.19 0.79,-0.56 1.58,-1.13 2.4,-1.72 31.03,-22.09 31.03,-22.09 35.22,-22.09 z"
     fill="#ef0f37"
     id="path18" />
  <path
     d="m 272.69662,403.19122 c 0.87,-0.01 1.74,-0.01 2.63,-0.02 1.83,-0.01 3.67,-0.01 5.5,-0.01 2.8,-0.01 5.59,-0.05 8.39,-0.08 1.78,-0.01 3.57,-0.01 5.36,-0.01 1.24,-0.03 1.24,-0.03 2.51,-0.05 5.36,0.04 8.43,0.93 12.68,4.51 1.38,2.25 1.38,2.25 2,4 -1.03,0.05 -2.06,0.11 -3.12,0.16 -4.56,0.98 -6.84,2.94 -10,6.15 -9.65,9.41 -9.65,9.41 -13.29,10.23 -3.71,-0.78 -6.17,-2.88 -9.03,-5.23 -0.54,-0.44 -1.09,-0.87 -1.66,-1.32 -2.2,-1.76 -4.39,-3.54 -6.51,-5.41 -3.79,-3.32 -6.33,-4.28 -11.39,-4.58 2.42,-5.56 2.42,-5.56 4.55,-7.18 3.76,-1.27 7.44,-1.15 11.38,-1.16 z"
     fill="#f90338"
     id="path19" />
  <path
     d="m 446.76693,349.52716 c 2,1 2,1 2.93,3.33 0.31,0.96 0.62,1.93 0.95,2.92 2.03,6.04 2.03,6.04 6.12,10.75 3.93,1.59 7.92,2.85 12,4 -1,2 -1,2 -3.33,2.86 -1.44,0.44 -1.44,0.44 -2.92,0.89 -5.17,1.84 -7.91,3.37 -10.75,8.25 -0.91,2.89 -1.67,5.75 -2.32,8.71 -0.23,0.75 -0.45,1.51 -0.68,2.29 -0.99,0.5 -0.99,0.5 -2,1 -0.23,-0.88 -0.46,-1.76 -0.7,-2.67 -2.25,-8.86 -2.25,-8.86 -8.3,-15.33 -4.18,-1.99 -8.43,-3.29 -13,-4 0,-0.66 0,-1.32 0,-2 0.96,-0.3 1.93,-0.61 2.92,-0.92 1.28,-0.42 2.55,-0.84 3.83,-1.27 1.88,-0.61 1.88,-0.61 3.8,-1.23 4.79,-2.2 6.63,-4.71 8.72,-9.47 0.32,-0.97 0.65,-1.93 0.98,-2.92 0.5,-1.47 0.5,-1.47 1.02,-2.96 0.24,-0.74 0.48,-1.47 0.73,-2.23 z"
     fill="#f2f3f4"
     id="path21" />
  <path
     d="m 177.76693,349.52716 c 0.66,0 1.32,0 2,0 0.23,0.72 0.46,1.45 0.7,2.2 2.77,8.28 2.77,8.28 8.3,14.8 3.59,1.62 7.23,2.88 11,4 0,0.66 0,1.32 0,2 -0.66,0.16 -1.33,0.32 -2.01,0.48 -5.59,1.48 -9.44,2.68 -12.99,7.52 -1.23,2.61 -2.14,5.25 -3,8 -0.39,1.15 -0.78,2.31 -1.19,3.5 -0.27,0.83 -0.53,1.65 -0.81,2.5 -2,-2 -2,-2 -2.88,-5.75 -1.34,-5.66 -3.52,-9.14 -8.37,-12.5 -3.78,-1.97 -7.6,-2.88 -11.75,-3.75 0,-0.66 0,-1.32 0,-2 1.46,-0.49 1.46,-0.49 2.96,-0.99 1.28,-0.44 2.57,-0.88 3.85,-1.32 0.97,-0.32 0.97,-0.32 1.95,-0.65 4.79,-1.6 4.79,-1.6 8.24,-5.04 1.23,-3.18 1.23,-3.18 2.19,-6.69 0.34,-1.18 0.69,-2.36 1.04,-3.57 0.25,-0.91 0.51,-1.81 0.77,-2.74 z"
     fill="#f2f2f4"
     id="path22" />
  <path
     d="m 231.31565,265.80452 c 3.93,1.21 6.08,4.12 8,7.62 0.67,3.67 0.29,5.37 -1.25,8.75 -2.8,3.6 -4.7,4.09 -9.18,4.75 -3.57,-0.5 -3.57,-0.5 -6.5,-2.94 -2.39,-3.34 -2.8,-6.39 -2.54,-10.44 1.34,-5.96 5.81,-8.11 11.47,-7.74 z"
     fill="#090913"
     id="path23" />
  <path
     d="m 344.96164,221.08005 c -5.06,1.71 -7.89,4.58 -11.69,8.25 -1.41,1.29 -2.82,2.58 -4.23,3.87 -1.53,1.4 -3.06,2.8 -4.59,4.21 -2.17,2 -4.35,3.99 -6.54,5.97 -0.55,0.49 -1.1,0.99 -1.66,1.5 -1.04,0.94 -2.09,1.89 -3.14,2.83 -2.33,2.11 -4.08,3.99 -5.84,6.62 0.08,4.25 0.62,6.47 3.13,9.94 3.68,2.64 5.4,2.6 9.87,2.06 2.33,-1.64 4.05,-3.06 6,-5.06 0.52,-0.51 1.04,-1.01 1.58,-1.53 1.49,-1.45 2.96,-2.93 4.42,-4.41 0.68,-0.67 1.35,-1.35 2.05,-2.04 1.11,-1.11 2.21,-2.23 3.31,-3.35 1.83,-1.79 3.75,-3.45 5.71,-5.11 10.23,-8.95 10.23,-8.95 10.62,-14.63 -0.69,-3.87 -0.69,-3.87 -2.75,-6.93 -2.94,-1.94 -2.94,-1.94 -6.25,-2.19 z"
     fill="#070810"
     id="path17-7" />
  <path
     d="m 33.766931,58.52716 c 4.108,1.15902 14.6052,8.18884 5.00059,4.75059 -4.8638,-2.73042 -2.43893,3.91707 -3.03347,6.68023 -0.32237,72.85639 -0.64475,145.71279 -0.96712,218.56918 3,-0.33333 6,-0.66667 9,-1 -3.68722,3.1394 -12.29033,5.14909 -10,-2.10874 0,-75.63042 0,-151.26084 0,-226.89126 z"
     fill="#c2193e"
     id="path25" />
  <path
     d="m 532.76693,58.52716 v 113 c -3.27315,-8.34903 -1.871,-17.60139 -3.73879,-26.26466 -2.11287,-24.52351 -4.46624,-46.62716 -4.53361,-71.20558 2.60182,7.23196 3.49584,12.58423 4.67999,20.07329 0.25762,15.13947 0.53845,30.28776 1.59245,45.39695 v -77 c -1.97465,-0.20008 -8.91266,1.82149 -6.97848,-0.12822 2.51654,-2.1352 5.64956,-3.66551 8.97844,-3.87178 z"
     fill="#ce1b42"
     id="path26"
     sodipodi:nodetypes="ccccccccc" />
  <path
     d="m 263.76693,412.52716 c 3.87,2.19 7.21,4.71 10.62,7.56 4.85,4.44 4.85,4.44 10.75,6.83 3.64,-0.54 5.12,-2.18 7.75,-4.7 0.85,-0.8 1.7,-1.6 2.58,-2.43 1.35,-1.33 2.68,-2.67 3.98,-4.05 1.32,-1.21 1.32,-1.21 3.32,-1.21 0,0.66 0,1.32 0,2 -0.66,0 -1.32,0 -2,0 -0.08,0.58 -0.16,1.15 -0.25,1.75 -0.97,2.92 -2.43,4.27 -4.75,6.25 -0.99,0.33 -1.98,0.66 -3,1 -0.99,1.49 -0.99,1.49 -2,3 -2.6,0.29 -2.6,0.29 -5.62,0.19 -1.51,-0.04 -1.51,-0.04 -3.04,-0.08 -0.77,-0.04 -1.55,-0.07 -2.34,-0.11 0,-0.66 0,-1.32 0,-2 -0.99,0 -1.98,0 -3,0 0,-0.99 0,-1.98 0,-3 -1.32,-0.33 -2.64,-0.66 -4,-1 0,-0.66 0,-1.32 0,-2 -0.56,-0.27 -1.11,-0.54 -1.69,-0.81 -2.54,-1.31 -4.96,-2.56 -7.31,-4.19 0,-0.99 0,-1.98 0,-3 z"
     fill="#2d000a"
     id="path30" />
  <path
     d="m 267.81356,403.2525 c 0.78,-0.01 1.57,-0.02 2.38,-0.03 1.25,0 1.25,0 2.54,0 0.87,0 1.74,0 2.64,-0.01 1.83,0 3.67,-0.01 5.51,0 2.81,0 5.61,-0.02 8.42,-0.05 1.79,0 3.58,0 5.37,0 0.83,-0.01 1.67,-0.02 2.53,-0.03 4.71,0.04 7.68,0.43 11.56,3.39 -3,1 -3,1 -6.2,0.08 -3.95,-1.12 -7.5,-1.37 -11.56,-1.34 -0.71,0 -1.42,0 -2.16,-0.01 -1.49,0 -2.99,0.01 -4.48,0.01 -2.29,0.01 -4.57,0 -6.86,-0.01 -1.46,0 -2.91,0.01 -4.37,0.01 -1.98,0 -1.98,0 -3.99,0.01 -3.1,0.23 -4.8,0.61 -7.38,2.25 0,0.66 0,1.32 0,2 2.47,1.65 2.47,1.65 5,3 -3.41,0 -6.63,-0.49 -10,-1 2.46,-5.65 2.46,-5.65 4.86,-7.17 2.23,-0.86 3.82,-1.08 6.19,-1.1 z"
     fill="#d31338"
     id="path34" />
  <path
     d="m 53.766931,353.52716 c 0.33,0 0.66,0 1,0 0,6.6 0,13.2 0,20 -0.33,-1.32 -0.66,-2.64 -1,-4 -0.66,0 -1.32,0 -2,0 -0.33,0.99 -0.66,1.98 -1,3 -0.34,-6.96 0.7,-12.43 3,-19 z"
     fill="#b7b5c0"
     id="path44" />
  <path
     d="m 102.76693,265.52716 c -3.059999,1.46 -6.119999,2.92 -9.189999,4.38 -0.86,0.41 -1.73,0.82 -2.62,1.24 -0.84,0.4 -1.68,0.8 -2.55,1.22 -1.15,0.55 -1.15,0.55 -2.33,1.11 -0.76,0.34 -1.52,0.69 -2.31,1.05 -0.86,0.4 -1.72,0.79 -2.6,1.2 -2.4,0.8 -2.4,0.8 -5.4,-0.2 1.32,-0.33 2.64,-0.66 4,-1 0,-0.66 0,-1.32 0,-2 1.65,0 3.3,0 5,0 0,-0.66 0,-1.32 0,-2 3.33,-1.33 6.67,-2.67 10,-4 0.87,-0.39 1.75,-0.79 2.64,-1.2 2.36,-0.8 2.36,-0.8 5.359999,0.2 z"
     fill="#d9163f"
     id="path48" />
  <path
     d="m 267.76693,404.52716 c -1.98,0.99 -3.96,1.98 -6,3 0,0.66 0,1.32 0,2 2.46,1.64 2.46,1.64 5,3 -3.41,0 -6.63,-0.49 -10,-1 2.42,-5.57 2.42,-5.57 4.94,-7.44 2.4,-0.65 3.73,-0.39 6.06,0.44 z"
     fill="#c32445"
     id="path64" />
  <path
     d="m 352.76693,208.52716 c 0.99,0.33 1.98,0.66 3,1 2.57,0.07 5.12,0.09 7.69,0.06 0.7,0 1.4,-0.01 2.12,-0.01 1.73,-0.01 3.46,-0.03 5.19,-0.05 -2.28,2.28 -3.35,2.49 -6.44,3.12 -0.78,0.17 -1.56,0.34 -2.37,0.51 -2.19,0.37 -2.19,0.37 -5.19,0.37 -2.19,-2.5 -2.19,-2.5 -4,-5 z"
     fill="#e5123a"
     id="path65" />
  <path
     d="m 300.76693,471.52716 c 2.64,1.98 5.28,3.96 8,6 -0.66,0.66 -1.32,1.32 -2,2 -2.44,-1.19 -2.44,-1.19 -5,-3 -0.81,-2.69 -0.81,-2.69 -1,-5 z"
     fill="#212226"
     id="path80" />
  <path
     d="m 266.76693,413.52716 c 3.33,1.67 6.67,3.33 10,5 0,0.99 0,1.98 0,3 -5.01,-1.43 -6.94,-3.98 -10,-8 z"
     fill="#ca153e"
     id="path81" />
  <path
     d="m 291.76693,421.52716 c 0.66,0.33 1.32,0.66 2,1 -5.29,4.92 -5.29,4.92 -8.88,5.31 -1.05,-0.15 -1.05,-0.15 -2.12,-0.31 -0.33,-0.66 -0.66,-1.32 -1,-2 0.64,-0.2 1.28,-0.41 1.93,-0.62 0.83,-0.27 1.66,-0.54 2.51,-0.82 0.82,-0.26 1.64,-0.53 2.49,-0.81 2.03,-0.57 2.03,-0.57 3.07,-1.75 z"
     fill="#c9173e"
     id="path84" />
  <path
     d="m 191.76693,181.52716 c 0.99,0 1.98,0 3,0 -1.31,3.94 -2.92,6.23 -6,9 0,-1.65 0,-3.3 0,-5 0.99,-0.33 1.98,-0.66 3,-1 0,-0.99 0,-1.98 0,-3 z"
     fill="#e51246"
     id="path86" />
  <path
     d="m 318.76693,586.52716 c 0.33,0.99 0.66,1.98 1,3 -3.96,0 -7.92,0 -12,0 4.42,-3.32 5.72,-3.3 11,-3 z"
     fill="#d2d2db"
     id="path87" />
  <path
     d="m 147.76693,230.52716 c 0.99,0.66 1.98,1.32 3,2 -3.46,2.97 -3.46,2.97 -7,6 -0.33,-0.66 -0.66,-1.32 -1,-2 0.66,0 1.32,0 2,0 -0.33,-0.99 -0.66,-1.98 -1,-3 1.32,0 2.64,0 4,0 0,-0.99 0,-1.98 0,-3 z"
     fill="#de1b43"
     id="path91" />
  <path
     d="m 403.76693,570.52716 c 0.5,0.14 0.99,0.29 1.5,0.44 3.48,0.78 6.96,1.15 10.5,1.56 0,0.33 0,0.66 0,1 -3.63,0 -7.26,0 -11,0 -0.33,-0.99 -0.66,-1.98 -1,-3 z"
     fill="#e4e4e7"
     id="path94" />
  <path
     d="m 5.7669309,8.5271601 c 1.21,3.6199999 0.54,4.6399999 -1,7.9999999 -0.66,0 -1.32,0 -2,0 0.55,-3.37 1.05,-5.08 3,-7.9999999 z"
     fill="#17181f"
     id="path104" />
</svg>
